<svg width="45" height="45" viewBox="0 0 45 45" fill="none" xmlns="http://www.w3.org/2000/svg">
<path d="M26.25 35.625H31.75C32.8546 35.625 33.75 34.7296 33.75 33.625V25.9366C33.75 25.0188 34.3746 24.2189 35.2649 23.9963L40.2799 22.7425C40.5323 22.6794 40.5323 22.3206 40.2799 22.2575L35.2649 21.0037C34.3746 20.7811 33.75 19.9812 33.75 19.0634V9.375H26.25" stroke="white"/>
<path d="M18.75 9.375H13.25C12.1454 9.375 11.25 10.2704 11.25 11.375V19.0634C11.25 19.9812 10.6254 20.7811 9.73507 21.0037L4.72014 22.2575C4.46765 22.3206 4.46765 22.6794 4.72014 22.7425L9.73507 23.9963C10.6254 24.2189 11.25 25.0188 11.25 25.9366V35.625H18.75" stroke="white"/>
</svg>
