<svg width="45" height="45" viewBox="0 0 45 45" fill="none" xmlns="http://www.w3.org/2000/svg">
<mask id="mask0_26_640" style="mask-type:alpha" maskUnits="userSpaceOnUse" x="5" y="5" width="35" height="35">
<path d="M5.625 13.625C5.625 9.85376 5.625 7.96815 6.79657 6.79657C7.96815 5.625 9.85376 5.625 13.625 5.625H31.375C35.1462 5.625 37.0319 5.625 38.2034 6.79657C39.375 7.96815 39.375 9.85376 39.375 13.625V31.375C39.375 35.1462 39.375 37.0319 38.2034 38.2034C37.0319 39.375 35.1462 39.375 31.375 39.375H13.625C9.85376 39.375 7.96815 39.375 6.79657 38.2034C5.625 37.0319 5.625 35.1462 5.625 31.375V13.625Z" fill="#273B4A"/>
</mask>
<g mask="url(#mask0_26_640)">
<path d="M12.6973 21.0527L8.14435 25.6056C6.90366 26.8463 6.28331 27.4667 5.97862 28.2607C5.67393 29.0547 5.72004 29.9308 5.81226 31.683L6.5625 45.9375H39.375V34.5004C39.375 32.7458 39.375 31.8685 39.029 31.0916C38.683 30.3147 38.0309 29.7278 36.7267 28.554L32.8208 25.0387C31.4852 23.8367 30.8174 23.2357 30.0199 23.2566C29.2224 23.2776 28.5871 23.9129 27.3165 25.1835L24.5888 27.9112C23.6424 28.8576 23.1692 29.3308 22.6482 29.2304C22.1272 29.1301 21.8636 28.515 21.3363 27.2848L19.2023 22.3054L19.2023 22.3054C18.1479 19.845 17.6206 18.6148 16.5786 18.4141C15.5365 18.2135 14.5901 19.1599 12.6973 21.0527Z" fill="#323443" stroke="white"/>
</g>
<path d="M5.625 13.625C5.625 9.85376 5.625 7.96815 6.79657 6.79657C7.96815 5.625 9.85376 5.625 13.625 5.625H31.375C35.1462 5.625 37.0319 5.625 38.2034 6.79657C39.375 7.96815 39.375 9.85376 39.375 13.625V31.375C39.375 35.1462 39.375 37.0319 38.2034 38.2034C37.0319 39.375 35.1462 39.375 31.375 39.375H13.625C9.85376 39.375 7.96815 39.375 6.79657 38.2034C5.625 37.0319 5.625 35.1462 5.625 31.375V13.625Z" stroke="white" stroke-width="1.2"/>
<circle cx="30.9375" cy="14.0625" r="2.8125" fill="white"/>
</svg>
