<svg width="72" height="72" viewBox="0 0 72 72" fill="none" xmlns="http://www.w3.org/2000/svg">
<circle cx="36" cy="36" r="35" fill="#3A3636" stroke="url(#paint0_linear_6_347)" stroke-width="2"/>
<mask id="mask0_6_347" style="mask-type:alpha" maskUnits="userSpaceOnUse" x="18" y="19" width="35" height="35">
<path d="M18.625 27.625C18.625 23.8538 18.625 21.9681 19.7966 20.7966C20.9681 19.625 22.8538 19.625 26.625 19.625H44.375C48.1462 19.625 50.0319 19.625 51.2034 20.7966C52.375 21.9681 52.375 23.8538 52.375 27.625V45.375C52.375 49.1462 52.375 51.0319 51.2034 52.2034C50.0319 53.375 48.1462 53.375 44.375 53.375H26.625C22.8538 53.375 20.9681 53.375 19.7966 52.2034C18.625 51.0319 18.625 49.1462 18.625 45.375V27.625Z" fill="#273B4A"/>
</mask>
<g mask="url(#mask0_6_347)">
<path d="M25.6973 35.0527L21.1444 39.6056C19.9037 40.8463 19.2833 41.4667 18.9786 42.2607C18.6739 43.0547 18.72 43.9308 18.8123 45.683L19.5625 59.9375H52.375V48.5004C52.375 46.7458 52.375 45.8685 52.029 45.0916C51.683 44.3147 51.0309 43.7278 49.7267 42.554L45.8208 39.0387C44.4852 37.8367 43.8174 37.2357 43.0199 37.2566C42.2224 37.2776 41.5871 37.9129 40.3165 39.1835L37.5888 41.9112C36.6424 42.8576 36.1692 43.3308 35.6482 43.2304C35.1272 43.1301 34.8636 42.515 34.3363 41.2848L32.2023 36.3054L32.2023 36.3054C31.1479 33.845 30.6206 32.6148 29.5786 32.4141C28.5365 32.2135 27.5901 33.1599 25.6973 35.0527Z" fill="#323443" stroke="white"/>
</g>
<path d="M18.625 27.625C18.625 23.8538 18.625 21.9681 19.7966 20.7966C20.9681 19.625 22.8538 19.625 26.625 19.625H44.375C48.1462 19.625 50.0319 19.625 51.2034 20.7966C52.375 21.9681 52.375 23.8538 52.375 27.625V45.375C52.375 49.1462 52.375 51.0319 51.2034 52.2034C50.0319 53.375 48.1462 53.375 44.375 53.375H26.625C22.8538 53.375 20.9681 53.375 19.7966 52.2034C18.625 51.0319 18.625 49.1462 18.625 45.375V27.625Z" stroke="white" stroke-width="1.2"/>
<circle cx="43.9375" cy="28.0625" r="2.8125" fill="white"/>
<defs>
<linearGradient id="paint0_linear_6_347" x1="65.0323" y1="5.5742" x2="4.87742" y2="77.8065" gradientUnits="userSpaceOnUse">
<stop offset="0.255235" stop-color="#F12711"/>
<stop offset="1" stop-color="#F5AF19"/>
</linearGradient>
</defs>
</svg>
