<svg width="309" height="310" viewBox="0 0 309 310" fill="none" xmlns="http://www.w3.org/2000/svg">
<ellipse cx="154.5" cy="155" rx="103" ry="103.333" fill="#323443"/>
<path d="M109.438 142.083L147.956 180.727C148.015 180.786 148.11 180.786 148.169 180.727L251.062 77.5" stroke="#00FF38" stroke-width="1.2"/>
<path d="M255.057 135.071C259.596 158.122 256.129 182.038 245.234 202.837C234.339 223.637 216.673 240.066 195.176 249.39C173.679 258.714 149.647 260.371 127.081 254.086C104.514 247.8 84.7737 233.952 71.1443 214.844C57.5148 195.735 50.8188 172.521 52.171 149.063C53.5231 125.606 62.8418 103.32 78.5758 85.9156C94.3097 68.5112 115.51 57.0376 138.648 53.4039C161.786 49.7701 185.467 54.1954 205.749 65.9434" stroke="#00FF38" stroke-linecap="round"/>
</svg>
