<svg width="72" height="72" viewBox="0 0 72 72" fill="none" xmlns="http://www.w3.org/2000/svg">
<circle cx="36" cy="36" r="35" fill="#3A3636" stroke="url(#paint0_linear_6_286)" stroke-width="2"/>
<path d="M37.6967 19.625H29.875C26.3395 19.625 24.5717 19.625 23.4733 20.7233C22.375 21.8217 22.375 23.5895 22.375 27.125V45.875C22.375 49.4105 22.375 51.1783 23.4733 52.2766C24.5717 53.375 26.3395 53.375 29.875 53.375H41.125C44.6605 53.375 46.4283 53.375 47.5266 52.2766C48.625 51.1783 48.625 49.4105 48.625 45.875V30.5533C48.625 29.7869 48.625 29.4037 48.4823 29.0591C48.3395 28.7145 48.0686 28.4436 47.5267 27.9017L40.3484 20.7233C39.8064 20.1814 39.5355 19.9105 39.1909 19.7677C38.8463 19.625 38.4631 19.625 37.6967 19.625Z" stroke="white" stroke-width="2"/>
<path d="M37.375 19.625V27.125C37.375 28.8928 37.375 29.7767 37.9242 30.3258C38.4733 30.875 39.3572 30.875 41.125 30.875H48.625" stroke="white" stroke-width="2"/>
<defs>
<linearGradient id="paint0_linear_6_286" x1="65.0323" y1="5.5742" x2="4.87742" y2="77.8065" gradientUnits="userSpaceOnUse">
<stop offset="0.255235" stop-color="#F12711"/>
<stop offset="1" stop-color="#F5AF19"/>
</linearGradient>
</defs>
</svg>
